<?xml version="1.0" encoding="UTF-8" standalone="no"?>
<!-- Created with Inkscape (http://www.inkscape.org/) -->

<svg
   xmlns:dc="http://purl.org/dc/elements/1.1/"
   xmlns:cc="http://creativecommons.org/ns#"
   xmlns:rdf="http://www.w3.org/1999/02/22-rdf-syntax-ns#"
   xmlns:svg="http://www.w3.org/2000/svg"
   xmlns="http://www.w3.org/2000/svg"
   xmlns:sodipodi="http://sodipodi.sourceforge.net/DTD/sodipodi-0.dtd"
   xmlns:inkscape="http://www.inkscape.org/namespaces/inkscape"
   width="254"
   height="254"
   viewBox="0 0 67.204165 67.204169"
   version="1.1"
   id="svg8"
   inkscape:version="0.92.4 (5da689c313, 2019-01-14)"
   sodipodi:docname="Colar.svg">
  <defs
     id="defs2">
    <filter
       inkscape:collect="always"
       style="color-interpolation-filters:sRGB"
       id="filter2228"
       x="-1.153199"
       width="3.3063979"
       y="-1.1097956"
       height="3.2195913">
      <feGaussianBlur
         inkscape:collect="always"
         stdDeviation="0.24851787"
         id="feGaussianBlur2230" />
    </filter>
    <filter
       inkscape:collect="always"
       style="color-interpolation-filters:sRGB"
       id="filter2234"
       x="-1.153728"
       width="3.3074561"
       y="-1.1103048"
       height="3.2206096">
      <feGaussianBlur
         inkscape:collect="always"
         stdDeviation="0.24863188"
         id="feGaussianBlur2236" />
    </filter>
  </defs>
  <sodipodi:namedview
     id="base"
     pagecolor="#ffffff"
     bordercolor="#666666"
     borderopacity="1.0"
     inkscape:pageopacity="0.0"
     inkscape:pageshadow="2"
     inkscape:zoom="1.4142136"
     inkscape:cx="97.1153"
     inkscape:cy="188.25738"
     inkscape:document-units="mm"
     inkscape:current-layer="layer1"
     showgrid="false"
     units="px"
     inkscape:window-width="1600"
     inkscape:window-height="837"
     inkscape:window-x="-8"
     inkscape:window-y="-8"
     inkscape:window-maximized="1" />
  <metadata
     id="metadata5">
    <rdf:RDF>
      <cc:Work
         rdf:about="">
        <dc:format>image/svg+xml</dc:format>
        <dc:type
           rdf:resource="http://purl.org/dc/dcmitype/StillImage" />
        <dc:title></dc:title>
      </cc:Work>
    </rdf:RDF>
  </metadata>
  <g
     inkscape:label="Camada 1"
     inkscape:groupmode="layer"
     id="layer1"
     transform="translate(0,-229.79582)">
    <g
       id="g2334"
       transform="translate(0.93544334,-5.9868374)">
      <g
         style="fill:#ffffff"
         id="g848">
        <path
           style="fill:#ffffff;stroke:none;stroke-width:0.26458332px;stroke-linecap:butt;stroke-linejoin:miter;stroke-opacity:1"
           d="m 13.274542,264.93163 -4.7711189,8.78192 8.1185249,-5.1245 z"
           id="path822"
           inkscape:connector-curvature="0" />
        <path
           inkscape:connector-curvature="0"
           id="path824"
           d="m 16.621948,268.58905 -4.771119,8.78192 8.118525,-5.1245 z"
           style="fill:#ffffff;stroke:none;stroke-width:0.26458332px;stroke-linecap:butt;stroke-linejoin:miter;stroke-opacity:1" />
        <path
           style="fill:#ffffff;stroke:none;stroke-width:0.26458332px;stroke-linecap:butt;stroke-linejoin:miter;stroke-opacity:1"
           d="m 19.969354,272.24647 -2.923981,9.55699 6.933519,-6.64057 z"
           id="path826"
           inkscape:connector-curvature="0" />
        <path
           inkscape:connector-curvature="0"
           id="path828"
           d="m 23.978892,275.16289 -2.923981,9.55699 6.933519,-6.64057 z"
           style="fill:#ffffff;stroke:none;stroke-width:0.26458332px;stroke-linecap:butt;stroke-linejoin:miter;stroke-opacity:1" />
        <path
           style="fill:#ffffff;stroke:none;stroke-width:0.26458332px;stroke-linecap:butt;stroke-linejoin:miter;stroke-opacity:1"
           d="m 39.474792,275.98971 2.923981,9.55699 -6.933519,-6.64057 z"
           id="path832"
           inkscape:connector-curvature="0" />
        <path
           inkscape:connector-curvature="0"
           id="path834"
           d="m 43.48433,273.07329 2.923981,9.55699 -6.933519,-6.64057 z"
           style="fill:#ffffff;stroke:none;stroke-width:0.26458332px;stroke-linecap:butt;stroke-linejoin:miter;stroke-opacity:1" />
        <path
           style="fill:#ffffff;stroke:none;stroke-width:0.26458332px;stroke-linecap:butt;stroke-linejoin:miter;stroke-opacity:1"
           d="m 47.09102,269.67128 4.114033,9.10826 -7.720723,-5.70625 z"
           id="path836"
           inkscape:connector-curvature="0" />
        <path
           inkscape:connector-curvature="0"
           id="path838"
           d="m 49.93904,265.61287 5.86334,8.09364 -8.71136,-4.03523 z"
           style="fill:#ffffff;stroke:none;stroke-width:0.26458332px;stroke-linecap:butt;stroke-linejoin:miter;stroke-opacity:1" />
      </g>
      <path
         sodipodi:nodetypes="cscsc"
         inkscape:connector-curvature="0"
         id="path12"
         d="M 29.934188,279.3602 C 28.33057,278.42475 5.1144564,264.67387 14.566189,255.70684 c 15.635268,-14.83345 33.943231,-3.8754 33.943231,-3.8754 0,0 8.285355,5.07812 -0.534539,16.83797 -8.286999,11.04933 -18.040693,10.69079 -18.040693,10.69079 z"
         style="fill:none;stroke:#a0892c;stroke-width:1.5;stroke-linecap:butt;stroke-linejoin:miter;stroke-miterlimit:4;stroke-dasharray:none;stroke-opacity:1" />
      <path
         sodipodi:nodetypes="ccccc"
         inkscape:connector-curvature="0"
         id="path850"
         d="m 29.934188,279.3602 -1.511132,5.5604 2.84657,-0.0545 -1.275023,-6.23735 z"
         style="fill:#a0892c;fill-opacity:1;stroke:none;stroke-width:0.33737916px;stroke-linecap:butt;stroke-linejoin:miter;stroke-opacity:1" />
      <rect
         rx="1.3432691"
         y="284.79556"
         x="26.635571"
         height="8.7995911"
         width="6.5648937"
         id="rect854"
         style="opacity:1;fill:#a05a2c;fill-opacity:1;stroke:none;stroke-width:2.6473937;stroke-miterlimit:4;stroke-dasharray:none;stroke-opacity:1" />
      <rect
         rx="1.0558593"
         y="285.66946"
         x="27.307985"
         height="7.0953517"
         width="5.1602497"
         id="rect2266"
         style="opacity:1;fill:#784421;fill-opacity:1;stroke:none;stroke-width:2.10763693;stroke-miterlimit:4;stroke-dasharray:none;stroke-opacity:1" />
      <rect
         style="opacity:1;fill:#ff0000;fill-opacity:1;stroke:none;stroke-width:1.89336932;stroke-miterlimit:4;stroke-dasharray:none;stroke-opacity:1"
         id="rect856"
         width="4.5364285"
         height="6.5134282"
         x="27.649948"
         y="285.90686"
         rx="0.92821676" />
      <path
         inkscape:connector-curvature="0"
         id="path858"
         d="m 31.994198,286.27197 -0.756138,0.61709"
         style="fill:none;fill-opacity:1;stroke:#d40000;stroke-width:0.07869669;stroke-linecap:butt;stroke-linejoin:miter;stroke-miterlimit:4;stroke-dasharray:none;stroke-opacity:1" />
      <path
         style="fill:none;fill-opacity:1;stroke:#d40000;stroke-width:0.07737426;stroke-linecap:butt;stroke-linejoin:miter;stroke-miterlimit:4;stroke-dasharray:none;stroke-opacity:1"
         d="m 28.652357,291.51296 -0.781085,0.57747"
         id="path860"
         inkscape:connector-curvature="0" />
      <path
         inkscape:connector-curvature="0"
         id="path862"
         d="m 31.147971,291.54325 0.776925,0.59146"
         style="fill:none;fill-opacity:1;stroke:#d40000;stroke-width:0.07809922;stroke-linecap:butt;stroke-linejoin:miter;stroke-miterlimit:4;stroke-dasharray:none;stroke-opacity:1" />
      <path
         style="fill:none;fill-opacity:1;stroke:#d40000;stroke-width:0.07732412;stroke-linecap:butt;stroke-linejoin:miter;stroke-miterlimit:4;stroke-dasharray:none;stroke-opacity:1"
         d="m 27.832172,286.2845 0.752603,0.59854"
         id="path864"
         inkscape:connector-curvature="0" />
      <path
         inkscape:connector-curvature="0"
         id="path866"
         d="m 28.582666,286.88044 0.06749,4.63521 2.49973,0.0299 0.0898,-4.65858 z"
         style="fill:none;stroke:#d40000;stroke-width:0.07962654;stroke-linecap:butt;stroke-linejoin:miter;stroke-miterlimit:4;stroke-dasharray:none;stroke-opacity:1" />
      <path
         inkscape:connector-curvature="0"
         id="path868"
         d="m 27.83217,286.2845 c 0,0 0.184567,-0.30114 0.612505,-0.37356 0.0099,0.0127 0.648498,0.92831 0.648498,0.92831 l -0.510507,0.0412 z"
         style="fill:#ff5555;fill-opacity:1;stroke:none;stroke-width:0.07962654;stroke-linecap:butt;stroke-linejoin:miter;stroke-miterlimit:4;stroke-dasharray:none;stroke-opacity:1" />
      <path
         inkscape:connector-curvature="0"
         id="path870"
         d="m 28.444675,285.91094 0.795726,-0.005 0.193196,0.93574 -0.340423,-0.003 z"
         style="fill:#ff0000;fill-opacity:1;stroke:none;stroke-width:0.42135707px;stroke-linecap:butt;stroke-linejoin:miter;stroke-opacity:1" />
      <path
         inkscape:connector-curvature="0"
         id="path872"
         d="m 29.240401,285.90617 0.668068,0.005 0.0075,0.92831 -0.528869,0.003 z"
         style="fill:#ff5555;fill-opacity:1;stroke:none;stroke-width:0.36716482px;stroke-linecap:butt;stroke-linejoin:miter;stroke-opacity:1" />
      <path
         style="fill:#ff0000;fill-opacity:1;stroke:none;stroke-width:0.36716482px;stroke-linecap:butt;stroke-linejoin:miter;stroke-opacity:1"
         d="m 30.576537,285.90617 -0.668068,0.005 -0.0075,0.92831 0.528868,0.003 z"
         id="path874"
         inkscape:connector-curvature="0" />
      <path
         style="fill:#ff5555;fill-opacity:1;stroke:none;stroke-width:0.42135707px;stroke-linecap:butt;stroke-linejoin:miter;stroke-opacity:1"
         d="m 31.372263,285.91094 -0.795726,-0.005 -0.193196,0.93574 0.340422,-0.003 z"
         id="path876"
         inkscape:connector-curvature="0" />
      <path
         sodipodi:nodetypes="ccccc"
         style="fill:#ff0000;fill-opacity:1;stroke:none;stroke-width:0.07962654;stroke-linecap:butt;stroke-linejoin:miter;stroke-miterlimit:4;stroke-dasharray:none;stroke-opacity:1"
         d="m 31.966662,286.23678 c 0,0 -0.166461,-0.25342 -0.594399,-0.32584 -0.0099,0.0127 -0.648498,0.92831 -0.648498,0.92831 l 0.510506,0.0412 z"
         id="path878"
         inkscape:connector-curvature="0" />
      <path
         sodipodi:nodetypes="ccccc"
         style="fill:#ff5555;fill-opacity:1;stroke:none;stroke-width:0.07922654;stroke-linecap:butt;stroke-linejoin:miter;stroke-miterlimit:4;stroke-dasharray:none;stroke-opacity:1"
         d="m 27.871272,292.09043 c 0,0 0.174517,0.36945 0.590222,0.44324 0.0096,-0.0127 0.629959,-0.94604 0.629959,-0.94604 l -0.495913,-0.042 z"
         id="path880"
         inkscape:connector-curvature="0" />
      <path
         sodipodi:nodetypes="ccccc"
         style="fill:#ff0000;fill-opacity:1;stroke:none;stroke-width:0.41924042px;stroke-linecap:butt;stroke-linejoin:miter;stroke-opacity:1"
         d="m 28.461494,292.53367 0.772978,0.005 0.187673,-0.95362 -0.330691,0.003 z"
         id="path882"
         inkscape:connector-curvature="0" />
      <path
         sodipodi:nodetypes="ccccc"
         style="fill:#ff5555;fill-opacity:1;stroke:none;stroke-width:0.36532038px;stroke-linecap:butt;stroke-linejoin:miter;stroke-opacity:1"
         d="m 29.234472,292.53853 0.64897,-0.005 0.0073,-0.94604 -0.513749,-0.003 z"
         id="path884"
         inkscape:connector-curvature="0" />
      <path
         sodipodi:nodetypes="ccccc"
         inkscape:connector-curvature="0"
         id="path886"
         d="m 30.532411,292.53853 -0.648969,-0.005 -0.0073,-0.94604 0.513748,-0.003 z"
         style="fill:#ff0000;fill-opacity:1;stroke:none;stroke-width:0.36532038px;stroke-linecap:butt;stroke-linejoin:miter;stroke-opacity:1" />
      <path
         sodipodi:nodetypes="ccccc"
         inkscape:connector-curvature="0"
         id="path888"
         d="m 31.305389,292.53367 -0.772978,0.005 -0.187673,-0.95362 0.33069,0.003 z"
         style="fill:#ff5555;fill-opacity:1;stroke:none;stroke-width:0.41924042px;stroke-linecap:butt;stroke-linejoin:miter;stroke-opacity:1" />
      <path
         sodipodi:nodetypes="ccccc"
         inkscape:connector-curvature="0"
         id="path890"
         d="m 31.900384,292.15296 c 0,0 -0.17929,0.30692 -0.594995,0.38071 -0.0096,-0.0127 -0.629959,-0.94604 -0.629959,-0.94604 l 0.474458,-0.005 z"
         style="fill:#ff0000;fill-opacity:1;stroke:none;stroke-width:0.07922654;stroke-linecap:butt;stroke-linejoin:miter;stroke-miterlimit:4;stroke-dasharray:none;stroke-opacity:1" />
      <path
         inkscape:connector-curvature="0"
         id="path892"
         d="m 27.804411,286.31914 0.739022,0.5843 0.0018,0.37198 -0.895385,-0.10048 c 0,0 -0.06419,-0.59747 0.154714,-0.85588 z"
         style="fill:#ff0000;fill-opacity:1;stroke:none;stroke-width:0.42135707px;stroke-linecap:butt;stroke-linejoin:miter;stroke-opacity:1" />
      <path
         inkscape:connector-curvature="0"
         id="path894"
         d="m 28.545181,287.27542 0.01147,0.52505 -0.905262,-0.0164 -0.0018,-0.60908 z"
         style="fill:#ff5555;fill-opacity:1;stroke:none;stroke-width:0.42135707px;stroke-linecap:butt;stroke-linejoin:miter;stroke-opacity:1" />
      <path
         inkscape:connector-curvature="0"
         id="path896"
         d="m 27.651386,287.78406 0.905262,0.0164 0.0065,0.59583 -0.921719,0.0527 z"
         style="fill:#ff0000;fill-opacity:1;stroke:none;stroke-width:0.42135707px;stroke-linecap:butt;stroke-linejoin:miter;stroke-opacity:1" />
      <path
         sodipodi:nodetypes="ccccc"
         style="fill:#ff5555;fill-opacity:1;stroke:none;stroke-width:0.42135707px;stroke-linecap:butt;stroke-linejoin:miter;stroke-opacity:1"
         d="m 27.643949,288.37989 0.919228,0.0164 0.0065,0.59582 -0.921718,0.0527 z"
         id="path898"
         inkscape:connector-curvature="0" />
      <path
         sodipodi:nodetypes="ccccc"
         inkscape:connector-curvature="0"
         id="path900"
         d="m 27.650478,288.97805 0.919228,0.0143 0.0065,0.59583 -0.921719,0.0527 z"
         style="fill:#ff0000;fill-opacity:1;stroke:none;stroke-width:0.42135707px;stroke-linecap:butt;stroke-linejoin:miter;stroke-opacity:1" />
      <path
         style="fill:#ff5555;fill-opacity:1;stroke:none;stroke-width:0.42135707px;stroke-linecap:butt;stroke-linejoin:miter;stroke-opacity:1"
         d="m 27.657008,289.57388 0.919228,0.0143 0.0065,0.59583 -0.921719,0.0527 z"
         id="path902"
         inkscape:connector-curvature="0"
         sodipodi:nodetypes="ccccc" />
      <path
         style="fill:#ff0000;fill-opacity:1;stroke:none;stroke-width:0.411421px;stroke-linecap:butt;stroke-linejoin:miter;stroke-opacity:1"
         d="m 28.571063,290.67454 0.01163,-0.4905 -0.923847,0.0159 -0.0018,0.56901 z"
         id="path904"
         inkscape:connector-curvature="0" />
      <path
         sodipodi:nodetypes="ccccc"
         style="fill:#ff0000;fill-opacity:1;stroke:none;stroke-width:0.42135707px;stroke-linecap:butt;stroke-linejoin:miter;stroke-opacity:1"
         d="m 27.847602,292.05125 0.761961,-0.5597 -0.01147,-0.37362 -0.946409,0.0989 c 0,0 -0.04773,0.62874 0.195864,0.83448 z"
         id="path908"
         inkscape:connector-curvature="0" />
      <path
         inkscape:connector-curvature="0"
         id="path910"
         d="m 27.657092,290.76897 0.91397,-0.0944 0.02706,0.44339 -0.94641,0.0989 z"
         style="fill:#ff5555;fill-opacity:1;stroke:none;stroke-width:0.42135707px;stroke-linecap:butt;stroke-linejoin:miter;stroke-opacity:1" />
      <path
         style="fill:#ff0000;fill-opacity:1;stroke:none;stroke-width:0.42135707px;stroke-linecap:butt;stroke-linejoin:miter;stroke-opacity:1"
         d="m 32.01823,286.31957 -0.739022,0.5843 -0.0018,0.37198 0.895385,-0.10048 c 0,0 0.06419,-0.59747 -0.154715,-0.85588 z"
         id="path912"
         inkscape:connector-curvature="0" />
      <path
         style="fill:#ff5555;fill-opacity:1;stroke:none;stroke-width:0.42135707px;stroke-linecap:butt;stroke-linejoin:miter;stroke-opacity:1"
         d="m 31.277459,287.27585 -0.01147,0.52505 0.905261,-0.0164 0.0018,-0.60908 z"
         id="path914"
         inkscape:connector-curvature="0" />
      <path
         style="fill:#ff0000;fill-opacity:1;stroke:none;stroke-width:0.42135707px;stroke-linecap:butt;stroke-linejoin:miter;stroke-opacity:1"
         d="m 32.171254,287.78449 -0.905261,0.0164 -0.0065,0.59583 0.921718,0.0527 z"
         id="path916"
         inkscape:connector-curvature="0" />
      <path
         inkscape:connector-curvature="0"
         id="path918"
         d="m 32.178692,288.38032 -0.919228,0.0164 -0.0065,0.59582 0.921719,0.0527 z"
         style="fill:#ff5555;fill-opacity:1;stroke:none;stroke-width:0.42135707px;stroke-linecap:butt;stroke-linejoin:miter;stroke-opacity:1"
         sodipodi:nodetypes="ccccc" />
      <path
         style="fill:#ff0000;fill-opacity:1;stroke:none;stroke-width:0.42135707px;stroke-linecap:butt;stroke-linejoin:miter;stroke-opacity:1"
         d="m 32.172162,288.97848 -0.919228,0.0143 -0.0065,0.59583 0.921718,0.0527 z"
         id="path920"
         inkscape:connector-curvature="0"
         sodipodi:nodetypes="ccccc" />
      <path
         sodipodi:nodetypes="ccccc"
         inkscape:connector-curvature="0"
         id="path922"
         d="m 32.165633,289.57431 -0.919228,0.0143 -0.0065,0.59583 0.921718,0.0527 z"
         style="fill:#ff5555;fill-opacity:1;stroke:none;stroke-width:0.42135707px;stroke-linecap:butt;stroke-linejoin:miter;stroke-opacity:1" />
      <path
         inkscape:connector-curvature="0"
         id="path924"
         d="m 31.251577,290.67497 -0.01163,-0.4905 0.923846,0.0159 0.0018,0.56901 z"
         style="fill:#ff0000;fill-opacity:1;stroke:none;stroke-width:0.411421px;stroke-linecap:butt;stroke-linejoin:miter;stroke-opacity:1" />
      <path
         inkscape:connector-curvature="0"
         id="path926"
         d="m 31.953641,292.10106 -0.76196,-0.5778 0.02295,-0.4016 0.956334,0.0956 c 0,0 0.06913,0.56785 -0.158011,0.8098 z"
         style="fill:#ff0000;fill-opacity:1;stroke:none;stroke-width:0.42135707px;stroke-linecap:butt;stroke-linejoin:miter;stroke-opacity:1"
         sodipodi:nodetypes="cccccc" />
      <path
         sodipodi:nodetypes="ccccc"
         style="fill:#ff5555;fill-opacity:1;stroke:none;stroke-width:0.42135707px;stroke-linecap:butt;stroke-linejoin:miter;stroke-opacity:1"
         d="m 32.16555,290.7694 -0.953474,-0.0911 0.0025,0.44335 0.956205,0.0957 z"
         id="path928"
         inkscape:connector-curvature="0" />
      <ellipse
         transform="matrix(1.5925307,0,0,1.5925307,-17.644547,-168.90951)"
         ry="0.26871744"
         rx="0.25860363"
         cy="286.67712"
         cx="30.222666"
         id="path970"
         style="opacity:1;fill:#ff8080;fill-opacity:1;stroke:none;stroke-width:0.06214552;stroke-miterlimit:4;stroke-dasharray:none;stroke-opacity:1;filter:url(#filter2228)" />
      <ellipse
         transform="matrix(1.5925307,0,0,1.5925307,-17.644547,-168.90951)"
         style="opacity:1;fill:#ff8080;fill-opacity:1;stroke:none;stroke-width:0.06214552;stroke-miterlimit:4;stroke-dasharray:none;stroke-opacity:1;filter:url(#filter2234)"
         id="ellipse2232"
         cx="29.503544"
         cy="288.55969"
         rx="0.25860363"
         ry="0.26871744" />
      <path
         inkscape:connector-curvature="0"
         id="path2238"
         d="m 29.770485,280.13862 -0.304019,-1.89427 -1.660412,0.63142 -0.982218,-2.31522 H 24.18121 l -1.005602,-2.61924 -3.110349,-0.63143 -0.678196,-2.52569 -2.853102,-0.8419 -0.42095,-2.54909 -2.221678,-0.86528 0.374178,-1.87089 -2.432153,-2.0112 1.192691,-2.71279 -0.935444,-1.73057 2.104748,-1.07576 0.561265,-2.50231 2.502311,-0.3274 1.473324,-2.82972 h 2.853102 l 2.104747,-2.40876 3.133734,0.42094 2.45554,-1.98781 3.227279,1.1693 3.624845,-1.28623 2.525696,1.6838 4.466741,-0.30402 2.128134,2.3386 4.022407,0.39757 0.818512,2.97003 2.45554,2.5257 -1.286235,3.11035 0.584653,3.22728 -2.64263,2.1749 -0.608036,3.55469 -3.344211,1.66041 -1.520095,3.67161 -3.157122,0.46772 -2.081361,2.99342 -3.928861,-0.0468 -1.613641,1.98782 -2.26845,-1.14592 z"
         style="fill:none;stroke:#786721;stroke-width:0.1;stroke-linecap:butt;stroke-linejoin:miter;stroke-miterlimit:4;stroke-dasharray:none;stroke-opacity:1" />
      <path
         inkscape:connector-curvature="0"
         id="path2242"
         d="m 29.484505,281.00923 0.51263,0.7276 0.446484,-0.69453"
         style="fill:none;stroke:#786721;stroke-width:0.1;stroke-linecap:butt;stroke-linejoin:miter;stroke-miterlimit:4;stroke-dasharray:none;stroke-opacity:1" />
      <path
         inkscape:connector-curvature="0"
         id="path2244"
         d="m 29.219922,282.0841 0.777213,0.79375 0.644922,-0.77721"
         style="fill:none;stroke:#786721;stroke-width:0.1;stroke-linecap:butt;stroke-linejoin:miter;stroke-miterlimit:4;stroke-dasharray:none;stroke-opacity:1" />
      <path
         inkscape:connector-curvature="0"
         id="path2246"
         d="m 28.922265,283.15897 1.091406,0.82682 0.84336,-0.77721"
         style="fill:none;stroke:#786721;stroke-width:0.1;stroke-linecap:butt;stroke-linejoin:miter;stroke-miterlimit:4;stroke-dasharray:none;stroke-opacity:1" />
      <path
         inkscape:connector-curvature="0"
         id="path2248"
         d="m 28.674218,283.95272 1.273308,0.79375 1.074869,-0.87643"
         style="fill:none;stroke:#786721;stroke-width:0.1;stroke-linecap:butt;stroke-linejoin:miter;stroke-miterlimit:4;stroke-dasharray:none;stroke-opacity:1" />
      <path
         inkscape:connector-curvature="0"
         id="path2250"
         d="m 12.997656,265.41535 c 0,0 2.053018,2.98061 2.794662,3.75378 0.04961,0.34727 -0.595313,0.41341 -0.595313,0.41341 0,0 -2.447396,-3.07578 -2.629297,-3.34037 -0.181901,-0.26458 0.429948,-0.82682 0.429948,-0.82682 z"
         style="fill:#784421;stroke:none;stroke-width:0.26458332px;stroke-linecap:butt;stroke-linejoin:miter;stroke-opacity:1" />
      <path
         style="fill:#784421;stroke:none;stroke-width:0.26458332px;stroke-linecap:butt;stroke-linejoin:miter;stroke-opacity:1"
         d="m 15.966826,269.39193 c 0,0 2.502004,2.61512 3.357439,3.26015 0.104347,0.33492 -0.52178,0.50304 -0.52178,0.50304 0,0 -2.90651,-2.6462 -3.128272,-2.8784 -0.22176,-0.23219 0.292613,-0.88479 0.292613,-0.88479 z"
         id="path2252"
         inkscape:connector-curvature="0" />
      <path
         inkscape:connector-curvature="0"
         id="path2254"
         d="m 19.674225,272.93742 c 0,0 2.758892,2.34252 3.676413,2.89568 0.138404,0.32234 -0.466993,0.55427 -0.466993,0.55427 0,0 -3.164444,-2.33162 -3.409018,-2.53966 -0.24457,-0.20802 0.199598,-0.91029 0.199598,-0.91029 z"
         style="fill:#784421;stroke:none;stroke-width:0.26458332px;stroke-linecap:butt;stroke-linejoin:miter;stroke-opacity:1" />
      <path
         style="fill:#784421;stroke:none;stroke-width:0.26458332px;stroke-linecap:butt;stroke-linejoin:miter;stroke-opacity:1"
         d="m 23.549307,275.9561 c 0,0 2.909224,2.15298 3.86165,2.6436 0.159629,0.31238 -0.428921,0.58423 -0.428921,0.58423 0,0 -3.313142,-2.115 -3.571068,-2.30624 -0.257921,-0.19121 0.138339,-0.92159 0.138339,-0.92159 z"
         id="path2256"
         inkscape:connector-curvature="0" />
      <path
         inkscape:connector-curvature="0"
         id="path2258"
         d="m 39.918562,276.94025 c 0,0 -3.208599,1.67445 -4.225726,2.01102 -0.206259,0.28376 0.332864,0.64381 0.332864,0.64381 0,0 3.601701,-1.57412 3.886225,-1.72294 0.284514,-0.14878 0.0066,-0.93189 0.0066,-0.93189 z"
         style="fill:#784421;stroke:none;stroke-width:0.26458332px;stroke-linecap:butt;stroke-linejoin:miter;stroke-opacity:1" />
      <path
         style="fill:#784421;stroke:none;stroke-width:0.26458332px;stroke-linecap:butt;stroke-linejoin:miter;stroke-opacity:1"
         d="m 43.966624,274.10508 c 0,0 -2.862003,2.21536 -3.8036,2.72646 -0.15284,0.31576 0.441448,0.57482 0.441448,0.57482 0,0 3.266651,-2.18611 3.520381,-2.3829 0.253727,-0.19674 -0.158265,-0.91837 -0.158265,-0.91837 z"
         id="path2260"
         inkscape:connector-curvature="0" />
      <path
         inkscape:connector-curvature="0"
         id="path2262"
         d="m 47.494828,270.34022 c 0,0 -2.379109,2.7274 -3.203979,3.41108 -0.08884,0.33937 0.544355,0.47851 0.544355,0.47851 0,0 2.781767,-2.77703 2.992611,-3.01921 0.210851,-0.24212 -0.33302,-0.87037 -0.33302,-0.87037 z"
         style="fill:#784421;stroke:none;stroke-width:0.26458332px;stroke-linecap:butt;stroke-linejoin:miter;stroke-opacity:1" />
      <path
         style="fill:#784421;stroke:none;stroke-width:0.26458332px;stroke-linecap:butt;stroke-linejoin:miter;stroke-opacity:1"
         d="m 50.464471,266.17632 c 0,0 -1.941319,3.05453 -2.653843,3.85461 -0.03673,0.34889 0.610199,0.3911 0.610199,0.3911 0,0 2.331913,-3.16422 2.503889,-3.43539 0.171991,-0.27111 -0.460277,-0.81031 -0.460277,-0.81031 z"
         id="path2264"
         inkscape:connector-curvature="0" />
    </g>
  </g>
</svg>
