<?xml version="1.0" encoding="UTF-8" standalone="no"?>
<!-- Created with Inkscape (http://www.inkscape.org/) -->

<svg
   xmlns:dc="http://purl.org/dc/elements/1.1/"
   xmlns:cc="http://creativecommons.org/ns#"
   xmlns:rdf="http://www.w3.org/1999/02/22-rdf-syntax-ns#"
   xmlns:svg="http://www.w3.org/2000/svg"
   xmlns="http://www.w3.org/2000/svg"
   xmlns:sodipodi="http://sodipodi.sourceforge.net/DTD/sodipodi-0.dtd"
   xmlns:inkscape="http://www.inkscape.org/namespaces/inkscape"
   width="1024"
   height="1024"
   viewBox="0 0 270.93333 270.93334"
   version="1.1"
   id="svg8"
   inkscape:export-filename="C:\Users\jean.cnnunes\Documents\Repositorio\ProjetoIndio\assetsPlayer.png"
   inkscape:export-xdpi="96"
   inkscape:export-ydpi="96"
   inkscape:version="0.92.4 (5da689c313, 2019-01-14)"
   sodipodi:docname="Player.svg">
  <defs
     id="defs2" />
  <sodipodi:namedview
     id="base"
     pagecolor="#ffffff"
     bordercolor="#666666"
     borderopacity="1.0"
     inkscape:pageopacity="0.0"
     inkscape:pageshadow="2"
     inkscape:zoom="1.4142136"
     inkscape:cx="117.15689"
     inkscape:cy="763.14952"
     inkscape:document-units="mm"
     inkscape:current-layer="layer1"
     showgrid="false"
     units="px"
     showguides="false"
     inkscape:window-width="1600"
     inkscape:window-height="837"
     inkscape:window-x="-8"
     inkscape:window-y="-8"
     inkscape:window-maximized="1" />
  <metadata
     id="metadata5">
    <rdf:RDF>
      <cc:Work
         rdf:about="">
        <dc:format>image/svg+xml</dc:format>
        <dc:type
           rdf:resource="http://purl.org/dc/dcmitype/StillImage" />
        <dc:title />
      </cc:Work>
    </rdf:RDF>
  </metadata>
  <g
     inkscape:label="Camada 1"
     inkscape:groupmode="layer"
     id="layer1"
     transform="translate(0,-26.06665)">
    <rect
       rx="5"
       y="49.07206"
       x="-22.184742"
       height="5.8465209"
       width="1.7305702"
       id="rect5496"
       style="opacity:1;fill:#ff9955;fill-opacity:1;stroke:none;stroke-width:5;stroke-miterlimit:4;stroke-dasharray:none;stroke-opacity:1"
       transform="rotate(-36.576963)" />
    <path
       inkscape:connector-curvature="0"
       id="path5498"
       d="m 15.426257,56.74234 -1.204272,-0.56841 0.373995,-0.051 -1.005502,-0.63354 0.502516,0.039 -1.071048,-0.74963 0.664029,0.14561 -1.126331,-0.93512 0.577926,0.16832 -0.931405,-0.89443 0.511946,0.13491 -0.638398,-1.27659 1.026939,0.96769 0.03294,-0.62162 0.569002,1.26632 0.112621,-0.68074 0.422926,1.37471 0.145613,-0.66403 0.32396,1.32459 0.257431,-0.54109 0.06649,1.22736 0.34612,-0.42157 z"
       style="fill:#ff6600;fill-opacity:1;stroke:none;stroke-width:0.26458332px;stroke-linecap:butt;stroke-linejoin:miter;stroke-opacity:1" />
    <rect
       style="opacity:1;fill:#ff9955;fill-opacity:1;stroke:none;stroke-width:5;stroke-miterlimit:4;stroke-dasharray:none;stroke-opacity:1"
       id="rect5492"
       width="1.7305702"
       height="5.8465209"
       x="14.525299"
       y="51.356468"
       rx="5" />
    <path
       style="fill:#ff6600;fill-opacity:1;stroke:none;stroke-width:0.26458332px;stroke-linecap:butt;stroke-linejoin:miter;stroke-opacity:1"
       d="m 15.285338,57.04429 -0.628386,-1.17409 0.33073,0.18191 -0.429948,-1.10795 0.380338,0.33073 -0.413411,-1.24023 0.446484,0.51263 -0.347266,-1.42214 0.363803,0.47956 -0.214974,-1.27331 0.330729,0.41341 0.248047,-1.40559 0.248046,1.38906 0.396875,-0.47956 -0.297656,1.35599 0.496094,-0.47956 -0.479557,1.35599 0.51263,-0.44648 -0.529167,1.25677 0.529167,-0.28112 -0.677995,1.02526 0.529167,-0.13229 z"
       id="path5494"
       inkscape:connector-curvature="0" />
    <path
       style="fill:#333333;stroke:none;stroke-width:0.26458332px;stroke-linecap:butt;stroke-linejoin:miter;stroke-opacity:1"
       d="m 11.201325,67.16305 c -4.1627207,-4.72399 0.327406,-10.57051 0.327406,-10.57051 0,0 1.658994,-2.04995 4.699185,-1.58223 1.010906,-0.006 2.004595,0.056 2.971452,0.22579 l 0.467721,0.46772 0.514494,-0.46772 c 0.786913,-0.0449 1.224849,-0.17708 3.086963,0.0468 0,0 1.74811,0.46187 2.40292,2.91156 0,0 1.783189,6.06871 -1.4207,8.82827 z"
       id="path5370"
       inkscape:connector-curvature="0"
       sodipodi:nodetypes="cccccccccc" />
    <g
       id="g5490"
       style="fill:#ff7f2a"
       transform="translate(-53.578125,-81.75625)">
      <rect
         style="opacity:1;fill:#ff7f2a;fill-opacity:1;stroke:none;stroke-width:0.05935981;stroke-miterlimit:4;stroke-dasharray:none;stroke-opacity:1"
         id="rect4515-3"
         width="1.3671516"
         height="2.845968"
         x="27.709684"
         y="165.61826"
         rx="0.57908535"
         transform="matrix(-0.80874891,0.58815406,0.58815406,0.80874891,0,0)" />
      <rect
         style="opacity:1;fill:#ff7f2a;fill-opacity:1;stroke:none;stroke-width:0.07143082;stroke-miterlimit:4;stroke-dasharray:none;stroke-opacity:1"
         id="rect4519-8"
         width="1.4777887"
         height="3.812593"
         x="-23.455788"
         y="163.6776"
         rx="0.62594807"
         transform="matrix(-0.94649864,0.32270779,0.31831272,0.94798577,0,0)" />
    </g>
    <rect
       style="opacity:1;fill:#ff9955;fill-opacity:1;stroke:none;stroke-width:0.09342416;stroke-miterlimit:4;stroke-dasharray:none;stroke-opacity:1"
       id="rect4559"
       width="12.664981"
       height="7.4662557"
       x="11.487762"
       y="58.497185"
       rx="1.914706" />
    <g
       id="g5400"
       transform="translate(-53.531353,-81.569161)">
      <ellipse
         style="opacity:1;fill:#ffffff;fill-opacity:1;stroke:none;stroke-width:0.09827159;stroke-miterlimit:4;stroke-dasharray:none;stroke-opacity:1"
         id="ellipse6140-8"
         cx="70.441399"
         cy="143.50432"
         rx="1.332865"
         ry="1.7942412" />
      <ellipse
         ry="1.5150545"
         rx="1.1254691"
         cy="143.47401"
         cx="70.427574"
         id="ellipse6142-6"
         style="opacity:1;fill:#803300;fill-opacity:1;stroke:none;stroke-width:0.08298038;stroke-miterlimit:4;stroke-dasharray:none;stroke-opacity:1" />
      <ellipse
         ry="1.7942412"
         rx="1.332865"
         cy="143.67024"
         cx="75.955482"
         id="ellipse6144-4"
         style="opacity:1;fill:#ffffff;fill-opacity:1;stroke:none;stroke-width:0.09827159;stroke-miterlimit:4;stroke-dasharray:none;stroke-opacity:1" />
      <ellipse
         style="opacity:1;fill:#803300;fill-opacity:1;stroke:none;stroke-width:0.08298038;stroke-miterlimit:4;stroke-dasharray:none;stroke-opacity:1"
         id="ellipse6146-4"
         cx="75.941658"
         cy="143.63992"
         rx="1.1254691"
         ry="1.5150545" />
    </g>
    <path
       style="fill:#333333;stroke:none;stroke-width:0.26458332px;stroke-linecap:butt;stroke-linejoin:miter;stroke-opacity:1"
       d="m 10.780376,61.20831 8.138358,-0.0468 0.748355,-2.29184 0.935443,2.33861 h 3.601458 l -0.05125,-3.2403 H 11.48776 Z"
       id="path4561"
       inkscape:connector-curvature="0" />
    <rect
       style="opacity:1;fill:#ff0000;fill-opacity:1;stroke:none;stroke-width:0.32723126;stroke-miterlimit:4;stroke-dasharray:none;stroke-opacity:1"
       id="rect5402"
       width="2.6954427"
       height="0.82682288"
       x="12.04422"
       y="62.04528" />
    <rect
       y="63.360191"
       x="12.041382"
       height="0.82682288"
       width="2.6954427"
       id="rect5404"
       style="opacity:1;fill:#ff0000;fill-opacity:1;stroke:none;stroke-width:0.32723126;stroke-miterlimit:4;stroke-dasharray:none;stroke-opacity:1" />
    <rect
       style="opacity:1;fill:#ff0000;fill-opacity:1;stroke:none;stroke-width:0.12234961;stroke-miterlimit:4;stroke-dasharray:none;stroke-opacity:1"
       id="rect5406"
       width="0.37681291"
       height="0.82682288"
       x="23.774689"
       y="63.182396" />
    <rect
       y="61.959938"
       x="23.7771"
       height="0.82682288"
       width="0.36370125"
       id="rect5408"
       style="opacity:1;fill:#ff0000;fill-opacity:1;stroke:none;stroke-width:0.12020212;stroke-miterlimit:4;stroke-dasharray:none;stroke-opacity:1" />
    <path
       inkscape:connector-curvature="0"
       id="path5410"
       d="m 15.608602,65.8886 4.608557,0.006 c 0,0 0.718196,0.10839 0.414791,2.73762 0,0 -0.170286,1.28016 -0.04585,1.68113 l -4.75628,-0.0553 c 0,0 0.155354,-1.09555 -0.152091,-1.991 -0.323979,-0.94507 -0.06913,-2.37814 -0.06913,-2.37814 z"
       style="fill:#ff9955;fill-opacity:1;stroke:none;stroke-width:0.07742783px;stroke-linecap:butt;stroke-linejoin:miter;stroke-opacity:1"
       sodipodi:nodetypes="ccccccc" />
    <path
       inkscape:connector-curvature="0"
       id="path4551-1"
       d="m 16.114859,65.95741 c 0.101901,0 3.970008,0.0116 3.970008,0.0116 0,0 -1.922705,0.51462 -3.970008,-0.0116 z"
       style="fill:#ff9955;fill-opacity:1;stroke:none;stroke-width:0.23550145px;stroke-linecap:butt;stroke-linejoin:miter;stroke-opacity:1" />
    <rect
       style="opacity:1;fill:#ff9955;fill-opacity:1;stroke:none;stroke-width:0.08429021;stroke-miterlimit:4;stroke-dasharray:none;stroke-opacity:1"
       id="rect4509-9"
       width="2.0872183"
       height="7.3919454"
       x="24.050951"
       y="65.642609"
       rx="2.055109"
       transform="matrix(0.98780997,0.15566456,-0.11951892,0.99283192,0,0)" />
    <rect
       transform="matrix(-0.98780997,0.15566456,0.11951892,0.99283192,0,0)"
       rx="2.055109"
       y="71.32579"
       x="-12.196523"
       height="7.3919454"
       width="2.0872183"
       id="rect5442"
       style="opacity:1;fill:#ff9955;fill-opacity:1;stroke:none;stroke-width:0.08429021;stroke-miterlimit:4;stroke-dasharray:none;stroke-opacity:1" />
    <rect
       style="opacity:1;fill:#c8ab37;fill-opacity:1;stroke:none;stroke-width:0.30000001;stroke-miterlimit:4;stroke-dasharray:none;stroke-opacity:1"
       id="rect5444"
       width="2.7361717"
       height="3.5546846"
       x="16.897842"
       y="69.908714" />
    <path
       style="fill:#a05a2c;stroke:none;stroke-width:0.26458332px;stroke-linecap:butt;stroke-linejoin:miter;stroke-opacity:1"
       d="m 15.866731,69.9296 c 0,0 1.736328,0.50437 4.671549,0 l -5.9e-5,-0.31101 c 0,0 -3.876243,0.45018 -4.674293,-0.0555 z"
       id="path5450"
       inkscape:connector-curvature="0" />
    <rect
       style="opacity:1;fill:#ff9955;fill-opacity:1;stroke:none;stroke-width:0.07143082;stroke-miterlimit:4;stroke-dasharray:none;stroke-opacity:1"
       id="rect4545-8"
       width="1.4777887"
       height="3.812593"
       x="54.063633"
       y="40.16256"
       rx="0.62594807"
       transform="matrix(0.76351708,0.64578763,-0.64223809,0.76650521,0,0)" />
    <rect
       style="opacity:1;fill:#ff9955;fill-opacity:1;stroke:none;stroke-width:0.05935981;stroke-miterlimit:4;stroke-dasharray:none;stroke-opacity:1"
       id="rect4547-9"
       width="1.3671516"
       height="2.845968"
       x="3.1297643"
       y="69.310867"
       rx="0.57908535"
       transform="matrix(-0.9675853,0.25254441,0.25254441,0.9675853,0,0)" />
    <rect
       transform="rotate(-36.576963)"
       style="opacity:1;fill:#ff9955;fill-opacity:1;stroke:none;stroke-width:5;stroke-miterlimit:4;stroke-dasharray:none;stroke-opacity:1"
       id="rect5500"
       width="1.7305702"
       height="5.8465209"
       x="-40.76902"
       y="73.488922"
       rx="5" />
    <path
       style="fill:#ff6600;fill-opacity:1;stroke:none;stroke-width:0.26458332px;stroke-linecap:butt;stroke-linejoin:miter;stroke-opacity:1"
       d="m 15.05208,87.424882 -1.204272,-0.56841 0.373995,-0.051 -1.005502,-0.63354 0.502516,0.039 -1.071048,-0.74963 0.664029,0.14561 -1.126331,-0.93512 0.577926,0.16832 -0.931405,-0.89443 0.511946,0.13491 -0.638398,-1.27659 1.026939,0.96769 0.03294,-0.62162 0.569002,1.26632 0.112621,-0.68074 0.422926,1.37471 0.145613,-0.66403 0.32396,1.32459 0.257431,-0.54109 0.06649,1.22736 0.34612,-0.42157 z"
       id="path5502"
       inkscape:connector-curvature="0" />
    <rect
       rx="5"
       y="82.039009"
       x="14.151122"
       height="5.8465209"
       width="1.7305702"
       id="rect5504"
       style="opacity:1;fill:#ff9955;fill-opacity:1;stroke:none;stroke-width:5;stroke-miterlimit:4;stroke-dasharray:none;stroke-opacity:1" />
    <path
       inkscape:connector-curvature="0"
       id="path5506"
       d="m 14.911161,87.726832 -0.628386,-1.17409 0.33073,0.18191 -0.429948,-1.10795 0.380338,0.33073 -0.413411,-1.24023 0.446484,0.51263 -0.347266,-1.42214 0.363803,0.47956 -0.214974,-1.27331 0.330729,0.41341 0.248047,-1.40559 0.248046,1.38906 0.396875,-0.47956 -0.297656,1.35599 0.496094,-0.47956 -0.479557,1.35599 0.51263,-0.44648 -0.529167,1.25677 0.529167,-0.28112 -0.677995,1.02526 0.529167,-0.13229 z"
       style="fill:#ff6600;fill-opacity:1;stroke:none;stroke-width:0.26458332px;stroke-linecap:butt;stroke-linejoin:miter;stroke-opacity:1" />
    <path
       sodipodi:nodetypes="cccccccccc"
       inkscape:connector-curvature="0"
       id="path5508"
       d="m 10.827148,97.845592 c -4.162721,-4.72399 0.327406,-10.57051 0.327406,-10.57051 0,0 1.658994,-2.04995 4.699185,-1.58223 1.010906,-0.006 2.004595,0.056 2.971452,0.22579 l 0.467721,0.46772 0.514494,-0.46772 c 0.786913,-0.0449 1.224849,-0.17708 3.086963,0.0468 0,0 1.74811,0.46187 2.40292,2.91156 0,0 1.783189,6.06871 -1.4207,8.82827 z"
       style="fill:#333333;stroke:none;stroke-width:0.26458332px;stroke-linecap:butt;stroke-linejoin:miter;stroke-opacity:1" />
    <g
       transform="rotate(-86.561741,19.724501,150.89239)"
       style="fill:#ff7f2a"
       id="g5514">
      <rect
         transform="matrix(-0.80874891,0.58815406,0.58815406,0.80874891,0,0)"
         rx="0.57908535"
         y="165.61826"
         x="27.709684"
         height="2.845968"
         width="1.3671516"
         id="rect5510"
         style="opacity:1;fill:#ff7f2a;fill-opacity:1;stroke:none;stroke-width:0.05935981;stroke-miterlimit:4;stroke-dasharray:none;stroke-opacity:1" />
      <rect
         transform="matrix(-0.94649864,0.32270779,0.31831272,0.94798577,0,0)"
         rx="0.62594807"
         y="163.6776"
         x="-23.455788"
         height="3.812593"
         width="1.4777887"
         id="rect5512"
         style="opacity:1;fill:#ff7f2a;fill-opacity:1;stroke:none;stroke-width:0.07143082;stroke-miterlimit:4;stroke-dasharray:none;stroke-opacity:1" />
    </g>
    <rect
       rx="1.914706"
       y="89.179726"
       x="11.113585"
       height="7.4662557"
       width="12.664981"
       id="rect5516"
       style="opacity:1;fill:#ff9955;fill-opacity:1;stroke:none;stroke-width:0.09342416;stroke-miterlimit:4;stroke-dasharray:none;stroke-opacity:1" />
    <g
       transform="translate(-53.90553,-50.886619)"
       id="g5526">
      <ellipse
         ry="1.7942412"
         rx="1.332865"
         cy="143.50432"
         cx="70.441399"
         id="ellipse5518"
         style="opacity:1;fill:#ffffff;fill-opacity:1;stroke:none;stroke-width:0.09827159;stroke-miterlimit:4;stroke-dasharray:none;stroke-opacity:1" />
      <ellipse
         style="opacity:1;fill:#803300;fill-opacity:1;stroke:none;stroke-width:0.08298038;stroke-miterlimit:4;stroke-dasharray:none;stroke-opacity:1"
         id="ellipse5520"
         cx="70.427574"
         cy="143.47401"
         rx="1.1254691"
         ry="1.5150545" />
      <ellipse
         style="opacity:1;fill:#ffffff;fill-opacity:1;stroke:none;stroke-width:0.09827159;stroke-miterlimit:4;stroke-dasharray:none;stroke-opacity:1"
         id="ellipse5522"
         cx="75.955482"
         cy="143.67024"
         rx="1.332865"
         ry="1.7942412" />
      <ellipse
         ry="1.5150545"
         rx="1.1254691"
         cy="143.63992"
         cx="75.941658"
         id="ellipse5524"
         style="opacity:1;fill:#803300;fill-opacity:1;stroke:none;stroke-width:0.08298038;stroke-miterlimit:4;stroke-dasharray:none;stroke-opacity:1" />
    </g>
    <path
       inkscape:connector-curvature="0"
       id="path5528"
       d="m 10.406199,91.890852 8.138358,-0.0468 0.748355,-2.29184 0.935443,2.33861 h 3.601458 l -0.05125,-3.2403 h -12.66498 z"
       style="fill:#333333;stroke:none;stroke-width:0.26458332px;stroke-linecap:butt;stroke-linejoin:miter;stroke-opacity:1" />
    <rect
       y="92.727821"
       x="11.670043"
       height="0.82682288"
       width="2.6954427"
       id="rect5530"
       style="opacity:1;fill:#ff0000;fill-opacity:1;stroke:none;stroke-width:0.32723126;stroke-miterlimit:4;stroke-dasharray:none;stroke-opacity:1" />
    <rect
       style="opacity:1;fill:#ff0000;fill-opacity:1;stroke:none;stroke-width:0.32723126;stroke-miterlimit:4;stroke-dasharray:none;stroke-opacity:1"
       id="rect5532"
       width="2.6954427"
       height="0.82682288"
       x="11.667205"
       y="94.042732" />
    <rect
       y="93.864937"
       x="23.400511"
       height="0.82682288"
       width="0.37681291"
       id="rect5534"
       style="opacity:1;fill:#ff0000;fill-opacity:1;stroke:none;stroke-width:0.12234961;stroke-miterlimit:4;stroke-dasharray:none;stroke-opacity:1" />
    <rect
       style="opacity:1;fill:#ff0000;fill-opacity:1;stroke:none;stroke-width:0.12020212;stroke-miterlimit:4;stroke-dasharray:none;stroke-opacity:1"
       id="rect5536"
       width="0.36370125"
       height="0.82682288"
       x="23.402922"
       y="92.642479" />
    <path
       sodipodi:nodetypes="ccccccc"
       style="fill:#ff9955;fill-opacity:1;stroke:none;stroke-width:0.07742783px;stroke-linecap:butt;stroke-linejoin:miter;stroke-opacity:1"
       d="m 15.234425,96.571142 4.608557,0.006 c 0,0 0.718196,0.10839 0.414791,2.73762 0,0 -0.170286,1.280158 -0.04585,1.681128 l -4.75628,-0.0553 c 0,0 0.155354,-1.095549 -0.152091,-1.990998 -0.323979,-0.94507 -0.06913,-2.37814 -0.06913,-2.37814 z"
       id="path5538"
       inkscape:connector-curvature="0" />
    <rect
       style="opacity:1;fill:#ff7f2a;fill-opacity:1;stroke:none;stroke-width:0.07143082;stroke-miterlimit:4;stroke-dasharray:none;stroke-opacity:1"
       id="rect5554"
       width="1.4777887"
       height="3.812593"
       x="-82.776237"
       y="-53.871811"
       rx="0.62594807"
       transform="matrix(0.40851448,-0.91275184,-0.91084658,-0.41274509,0,0)" />
    <path
       style="fill:#ff9955;fill-opacity:1;stroke:none;stroke-width:0.23550145px;stroke-linecap:butt;stroke-linejoin:miter;stroke-opacity:1"
       d="m 15.740682,96.639952 c 0.101901,0 3.970008,0.0116 3.970008,0.0116 0,0 -1.922705,0.51462 -3.970008,-0.0116 z"
       id="path5540"
       inkscape:connector-curvature="0" />
    <rect
       transform="matrix(0.98780997,0.15566456,-0.11951892,0.99283192,0,0)"
       rx="2.055109"
       y="96.02961"
       x="27.348795"
       height="7.3919454"
       width="2.0872183"
       id="rect5542"
       style="opacity:1;fill:#ff9955;fill-opacity:1;stroke:none;stroke-width:0.08429021;stroke-miterlimit:4;stroke-dasharray:none;stroke-opacity:1" />
    <rect
       style="opacity:1;fill:#ff9955;fill-opacity:1;stroke:none;stroke-width:0.08429021;stroke-miterlimit:4;stroke-dasharray:none;stroke-opacity:1"
       id="rect5544"
       width="2.0872183"
       height="7.3919454"
       x="-8.1551924"
       y="101.59623"
       rx="2.055109"
       transform="matrix(-0.98780997,0.15566456,0.11951892,0.99283192,0,0)" />
    <rect
       y="100.59126"
       x="16.523664"
       height="3.5546846"
       width="2.7361717"
       id="rect5546"
       style="opacity:1;fill:#c8ab37;fill-opacity:1;stroke:none;stroke-width:0.30000001;stroke-miterlimit:4;stroke-dasharray:none;stroke-opacity:1" />
    <path
       inkscape:connector-curvature="0"
       id="path5548"
       d="m 15.492554,100.61214 c 0,0 1.736328,0.50437 4.671549,0 l -5.9e-5,-0.31101 c 0,0 -3.876243,0.45018 -4.674293,-0.0555 z"
       style="fill:#a05a2c;stroke:none;stroke-width:0.26458332px;stroke-linecap:butt;stroke-linejoin:miter;stroke-opacity:1" />
    <rect
       style="opacity:1;fill:#ff7f2a;fill-opacity:1;stroke:none;stroke-width:0.06526589;stroke-miterlimit:4;stroke-dasharray:none;stroke-opacity:1"
       id="rect5556"
       width="1.6391573"
       height="2.869549"
       x="8.9900398"
       y="-97.435257"
       rx="0.69429898"
       transform="matrix(-0.98717304,0.15965395,-0.22893022,-0.97344283,0,0)" />
    <rect
       transform="matrix(0.39615417,-0.91818401,-0.90500143,-0.42540852,0,0)"
       rx="0.62224483"
       y="-52.636166"
       x="-82.333099"
       height="3.699101"
       width="1.4690458"
       id="rect5550"
       style="opacity:1;fill:#ff9955;fill-opacity:1;stroke:none;stroke-width:0.07015118;stroke-miterlimit:4;stroke-dasharray:none;stroke-opacity:1" />
    <rect
       transform="rotate(168.96443)"
       rx="0.57908535"
       y="-97.242867"
       x="5.4204097"
       height="2.845968"
       width="1.3671516"
       id="rect5552"
       style="opacity:1;fill:#ff9955;fill-opacity:1;stroke:none;stroke-width:0.05935981;stroke-miterlimit:4;stroke-dasharray:none;stroke-opacity:1" />
  </g>
</svg>
